<svg width="25" height="24" viewBox="0 0 25 24" fill="none" xmlns="http://www.w3.org/2000/svg">
<path fill-rule="evenodd" clip-rule="evenodd" d="M7.5 8C7.5 5.23772 9.73772 3 12.5 3C15.2623 3 17.5 5.23772 17.5 8V9H19.5C21 9 21.5 9.72 21.5 10.6V20.1C21.5 21.2046 20.6046 22.1 19.5 22.1H5.5C4.39543 22.1 3.5 21.2046 3.5 20.1V10.6C3.5 9.72 4 9 5.35 9H7.5V8ZM15.5 8V9H9.5V8C9.5 6.34228 10.8423 5 12.5 5C14.1577 5 15.5 6.34228 15.5 8ZM12.5 12C11.3954 12 10.444 12.8968 10.5 14C10.537 14.7298 10.9088 15.3007 11.5 15.5816V17C11.5 17.4142 11.6772 18.5 12.5 18.5C13.3228 18.5 13.5 17.4142 13.5 17V15.5816C14.0912 15.3007 14.463 14.7298 14.5 14C14.556 12.8968 13.6046 12 12.5 12Z" fill="#1A1A1A"/>
</svg>
