<svg width="25" height="24" viewBox="0 0 25 24" fill="none" xmlns="http://www.w3.org/2000/svg">
<g clip-path="url(#clip0_1_75)">
<mask id="mask0_1_75" style="mask-type:luminance" maskUnits="userSpaceOnUse" x="0" y="0" width="25" height="24">
<path d="M24.5 0H0.5V24H24.5V0Z" fill="white"/>
</mask>
<g mask="url(#mask0_1_75)">
<path d="M18.4102 2.55247C18.4102 2.30246 18.2402 2.08452 17.9979 2.02388L17.6996 1.94924C17.4007 1.87442 17.1278 1.71973 16.91 1.50168C16.6921 1.28364 16.5376 1.01044 16.4629 0.711289L16.3883 0.41295C16.3277 0.170257 16.1099 0 15.86 0C15.6103 0 15.3926 0.169952 15.3318 0.412355L15.2567 0.711289C15.1821 1.01033 15.0277 1.28346 14.81 1.50149C14.5923 1.71953 14.3196 1.87429 14.0209 1.94924L13.7226 2.02388C13.4803 2.08452 13.3103 2.30246 13.3103 2.55247C13.3103 2.80249 13.4803 3.02042 13.7226 3.08106L14.0209 3.15571C14.3197 3.23052 14.5927 3.38522 14.8105 3.60327C15.0283 3.82131 15.1829 4.09451 15.2576 4.39366L15.3322 4.69224C15.3927 4.93479 15.6105 5.10495 15.8602 5.10495C16.11 5.10495 16.3277 4.93479 16.3883 4.69224L16.4629 4.39366C16.5376 4.09451 16.6921 3.82131 16.91 3.60327C17.1278 3.38522 17.4007 3.23052 17.6996 3.15571L17.9979 3.08106C18.2402 3.02042 18.4102 2.80249 18.4102 2.55247Z" fill="#1A1A1A"/>
<path d="M24.5 7.5C24.5 7.15717 24.2667 6.85834 23.9341 6.77519L23.5247 6.67283C23.1145 6.57025 22.7399 6.35812 22.4409 6.05913C22.1419 5.76015 21.9298 5.38553 21.8272 4.97533L21.7248 4.56592C21.6417 4.23332 21.3428 4 21 4C20.6572 4 20.3584 4.23332 20.2752 4.56592L20.1728 4.97533C20.0703 5.38553 19.8581 5.76015 19.5591 6.05913C19.2602 6.35812 18.8855 6.57025 18.4753 6.67283L18.0659 6.77519C17.7333 6.85834 17.5 7.15717 17.5 7.5C17.5 7.84283 17.7333 8.14166 18.0659 8.22481L18.4753 8.32717C18.8855 8.42975 19.2602 8.64188 19.5591 8.94087C19.8581 9.23985 20.0703 9.61447 20.1728 10.0247L20.2752 10.4341C20.3584 10.7667 20.6572 11 21 11C21.3428 11 21.6417 10.7667 21.7248 10.4341L21.8272 10.0247C21.9298 9.61447 22.1419 9.23985 22.4409 8.94087C22.7399 8.64188 23.1145 8.42975 23.5247 8.32717L23.9341 8.22481C24.2667 8.14166 24.5 7.84283 24.5 7.5Z" fill="#1A1A1A"/>
<path d="M10.2135 4.51378C10.4838 3.82874 11.517 3.82874 11.7873 4.51378L13.7371 9.6693C13.822 9.88467 14.0031 10.6172 14.2328 10.6969L18.9521 12.7758C19.6826 13.0293 19.6826 13.9982 18.9521 14.2517L14.2328 15.8346C14.0031 15.9143 13.822 16.6468 13.7371 16.8622L11.7873 21.4862C11.517 22.1713 10.4838 22.1713 10.2135 21.4862L8.26374 16.8622C8.17875 16.6468 7.99768 15.9143 7.76801 15.8346L3.04788 14.2517C2.31737 13.9982 2.31737 13.0293 3.04788 12.7758L7.76801 10.6969C7.99768 10.6172 8.17875 9.88467 8.26374 9.6693L10.2135 4.51378Z" fill="#1A1A1A"/>
</g>
</g>
<defs>
<clipPath id="clip0_1_75">
<rect width="24" height="24" fill="white" transform="translate(0.5)"/>
</clipPath>
</defs>
</svg>
