<svg width="25" height="24" viewBox="0 0 25 24" fill="none" xmlns="http://www.w3.org/2000/svg">
<path d="M16.7222 3.5C15.9029 3.5 15.0948 3.69202 14.3619 4.06085C13.6291 4.42969 12.9916 4.9652 12.5 5.62499C11.8354 4.73299 10.9088 4.0741 9.85144 3.74165C8.79411 3.40919 7.65967 3.42003 6.6088 3.77262C5.55793 4.12521 4.64391 4.80168 3.99622 5.70621C3.34853 6.61074 3 7.69747 3 8.81247C3 15.1786 11.7875 20.1989 12.1569 20.4114C12.2616 20.4706 12.3799 20.5011 12.5 20.4999C12.6202 20.502 12.7387 20.4714 12.8431 20.4114C14.4613 19.4591 15.9791 18.3436 17.3731 17.0822C20.4431 14.302 22 11.5218 22 8.81247C22 7.40351 21.444 6.05227 20.4542 5.05599C19.4644 4.0597 18.122 3.5 16.7222 3.5Z" fill="#1A1A1A"/>
</svg>
