<svg width="15" height="19" viewBox="0 0 15 19" fill="none" xmlns="http://www.w3.org/2000/svg">
<path d="M14.4831 8.7253C14.4595 8.6232 14.4108 8.5285 14.3414 8.4498C14.272 8.371 14.1841 8.3107 14.0855 8.274L9.5043 7.5642L10.6655 0.761928C10.6922 0.627518 10.6749 0.488138 10.6162 0.364208C10.5576 0.240268 10.4605 0.138308 10.3394 0.0732477C10.217 0.00847767 10.0766 -0.0142223 9.94 0.00868773C9.8033 0.0315877 9.6781 0.0988175 9.5838 0.199898L0.675929 9.6989C0.602939 9.7743 0.550119 9.8667 0.522329 9.9676C0.494539 10.0686 0.492659 10.1749 0.516859 10.2768C0.541759 10.3783 0.590909 10.4723 0.660149 10.5508C0.729379 10.6294 0.816649 10.6902 0.914529 10.728L5.49573 11.4378L4.33452 18.2401C4.30782 18.3745 4.32507 18.5139 4.38375 18.6378C4.44244 18.7617 4.53946 18.8637 4.66061 18.9288C4.75193 18.9746 4.85261 18.999 4.95489 19C5.04132 19.0004 5.1269 18.983 5.20628 18.9489C5.28565 18.9149 5.35711 18.8649 5.41619 18.8021L14.3241 9.3031C14.3971 9.2277 14.4499 9.1353 14.4777 9.0344C14.5055 8.9334 14.5073 8.8271 14.4831 8.7253Z" fill="#1A1A1A"/>
</svg>
